HIERARCHY
ROOT Hips
{
	OFFSET 0.000000 0.000000 0.000000
	CHANNELS 6 Xposition Yposition Zposition Xrotation Yrotation Zrotation
	JOINT LeftUpLeg_virtual
	{
		OFFSET 0.000000 0.000000 0.000000
		CHANNELS 3 Xrotation Yrotation Zrotation
		JOINT LeftUpLeg
		{
			OFFSET 15.427100 -6.655098 0.678600
			CHANNELS 3 Xrotation Yrotation Zrotation
			JOINT LeftLeg
			{
				OFFSET 4.081073 -39.591068 13.024000
				CHANNELS 3 Xrotation Yrotation Zrotation
				JOINT LeftFoot
				{
					OFFSET -4.081074 -37.707932 -15.979700
					CHANNELS 3 Xrotation Yrotation Zrotation
					JOINT LeftToeBase
					{
						OFFSET 5.346399 -15.068900 20.645000
						CHANNELS 3 Xrotation Yrotation Zrotation
						JOINT LeftToe_End
						{
							OFFSET 2.754700 0.931300 11.300900
							CHANNELS 3 Xrotation Yrotation Zrotation
							End Site
							{
								OFFSET 0 0 0
							}
						}
					}
				}
			}
		}
	}
	JOINT RightUpLeg_virtual
	{
		OFFSET 0.000000 0.000000 0.000000
		CHANNELS 3 Xrotation Yrotation Zrotation
		JOINT RightUpLeg
		{
			OFFSET -15.569500 -6.655098 0.678600
			CHANNELS 3 Xrotation Yrotation Zrotation
			JOINT RightLeg
			{
				OFFSET -4.081825 -39.591045 13.023800
				CHANNELS 3 Xrotation Yrotation Zrotation
				JOINT RightFoot
				{
					OFFSET 4.081824 -37.707954 -15.979600
					CHANNELS 3 Xrotation Yrotation Zrotation
					JOINT RightToeBase
					{
						OFFSET -5.346400 -15.068900 20.645000
						CHANNELS 3 Xrotation Yrotation Zrotation
						JOINT RightToe_End
						{
							OFFSET -2.754700 0.931300 11.300900
							CHANNELS 3 Xrotation Yrotation Zrotation
							End Site
							{
								OFFSET 0 0 0
							}
						}
					}
				}
			}
		}
	}
	JOINT Spine_virtual
	{
		OFFSET 0.000000 0.000000 0.000000
		CHANNELS 3 Xrotation Yrotation Zrotation
		JOINT Spine
		{
			OFFSET -0.279200 12.230698 -2.892100
			CHANNELS 3 Xrotation Yrotation Zrotation
			JOINT Spine1
			{
				OFFSET -0.232667 10.192268 -1.242267
				CHANNELS 3 Xrotation Yrotation Zrotation
				JOINT Spine1_split
				{
					OFFSET -0.232667 10.192268 -1.242267
					CHANNELS 3 Xrotation Yrotation Zrotation
					JOINT Spine2
					{
						OFFSET -0.232667 10.192268 -1.242267
						CHANNELS 3 Xrotation Yrotation Zrotation
						JOINT Neck_virtual
						{
							OFFSET 0.000000 0.000000 0.000000
							CHANNELS 3 Xrotation Yrotation Zrotation
							JOINT Neck
							{
								OFFSET -0.418800 17.814194 8.416900
								CHANNELS 3 Xrotation Yrotation Zrotation
								JOINT Head
								{
									OFFSET 0.000000 7.031097 3.806800
									CHANNELS 3 Xrotation Yrotation Zrotation
									JOINT HeadTop_End
									{
										OFFSET 0.000000 24.646606 12.978600
										CHANNELS 3 Xrotation Yrotation Zrotation
										End Site
										{
											OFFSET 0 0 0
										}
									}
								}
							}
						}
						JOINT LeftShoulder_virtual
						{
							OFFSET 0.000000 0.000000 0.000000
							CHANNELS 3 Xrotation Yrotation Zrotation
							JOINT LeftShoulder
							{
								OFFSET 8.476499 7.247704 -3.868750
								CHANNELS 3 Xrotation Yrotation Zrotation
								JOINT LeftShoulder_split
								{
									OFFSET 8.476499 7.247704 -3.868750
									CHANNELS 3 Xrotation Yrotation Zrotation
									JOINT LeftArm
									{
										OFFSET 9.308998 -2.777710 0.208600
										CHANNELS 3 Xrotation Yrotation Zrotation
										JOINT LeftForeArm
										{
											OFFSET 29.972298 0.000000 0.000000
											CHANNELS 3 Xrotation Yrotation Zrotation
											JOINT LeftHand
											{
												OFFSET 26.026505 0.000000 0.000000
												CHANNELS 3 Xrotation Yrotation Zrotation
												End Site
												{
													OFFSET 0 0 0
												}
											}
										}
									}
								}
							}
						}
						JOINT RightShoulder_virtual
						{
							OFFSET 0.000000 0.000000 0.000000
							CHANNELS 3 Xrotation Yrotation Zrotation
							JOINT RightShoulder
							{
								OFFSET -7.570500 7.247704 -3.868750
								CHANNELS 3 Xrotation Yrotation Zrotation
								JOINT RightShoulder_split
								{
									OFFSET -7.570500 7.247704 -3.868750
									CHANNELS 3 Xrotation Yrotation Zrotation
									JOINT RightArm
									{
										OFFSET -9.308998 -2.777710 0.208500
										CHANNELS 3 Xrotation Yrotation Zrotation
										JOINT RightForeArm
										{
											OFFSET -29.972300 0.000000 0.000000
											CHANNELS 3 Xrotation Yrotation Zrotation
											JOINT RightHand
											{
												OFFSET -26.026505 0.000000 0.000000
												CHANNELS 3 Xrotation Yrotation Zrotation
												End Site
												{
													OFFSET 0 0 0
												}
											}
										}
									}
								}
							}
						}
					}
				}
			}
		}
	}
}
MOTION
Frames: 8
Frame Time: 0.03333333
-0.547225 74.906639 0.890072 0.000000 0.000000 0.000000 13.334077 -78.457618 11.128148 -9.904620 51.811472 38.823728 49.298058 3.460759 -12.246381 -27.874031 10.014096 2.609123 -11.478240 3.090755 -5.001082 0.000000 0.000000 0.000000 8.013127 -67.672927 6.377250 -27.883501 3.410497 -29.475555 29.875138 6.246073 -2.912397 -9.098195 4.822839 32.660056 -11.571584 0.728018 -0.258256 0.000000 0.000000 0.000000 -3.139158 -75.019232 -2.555980 10.674372 -12.033111 11.924544 -3.697247 -10.795113 5.045495 -0.955416 -2.290782 0.872757 0.000000 0.000000 0.000000 -8.254127 -11.148580 5.263205 3.218024 39.627764 1.030835 9.457567 24.192241 -5.665881 0.000000 0.000000 0.000000 -9.472415 -11.209621 5.147783 5.530280 -19.767932 17.927257 7.302253 1.679247 -6.385606 -2.356662 -14.452945 6.089489 0.342402 -34.215559 -2.441422 0.000000 0.000000 0.000000 -11.358792 -11.677012 4.971378 4.354737 -19.356162 8.085574 4.757557 -0.309236 -1.138263 -55.900614 3.742986 -10.253079 -9.850845 49.933543 14.061415 0.000000 0.000000 0.000000 
-1.261451 76.782486 2.032684 0.000000 0.000000 0.000000 5.085780 -76.115587 3.124469 -3.162713 53.140077 31.375734 44.385301 7.330215 -9.532538 -31.380129 14.196646 4.872999 -5.915953 3.677889 -8.125523 0.000000 0.000000 0.000000 3.176621 -65.182476 1.636289 -21.019378 1.049201 -27.169173 30.958140 3.187834 -2.453561 -15.552182 -1.039129 26.816323 -12.741954 -0.426247 1.317120 0.000000 0.000000 0.000000 -7.437114 -73.031142 -7.454416 9.457644 -11.946514 11.453085 -4.526173 -11.039246 5.117163 -0.247273 -1.720481 0.999592 0.000000 0.000000 0.000000 -9.531012 -11.463405 5.248508 3.937271 35.500113 3.712335 9.496002 21.615162 -3.184001 0.000000 0.000000 0.000000 -10.943292 -11.410982 5.039571 6.647844 -20.835325 26.440738 7.087935 1.036144 -6.876601 -5.982893 -24.435270 10.347943 1.888610 -26.629087 0.236462 0.000000 0.000000 0.000000 -13.107657 -12.016647 4.923316 2.413369 -19.588421 5.833887 4.775342 -1.396866 -0.552218 -59.828571 6.633040 -12.843911 -8.210699 48.413771 14.380004 0.000000 0.000000 0.000000 
-1.564532 78.163712 3.428501 0.000000 0.000000 0.000000 -1.721912 -72.487234 -2.841372 2.600645 52.275211 25.425514 39.374179 7.347456 -6.015093 -30.727833 16.177832 1.467670 -4.887273 3.912205 -10.036674 0.000000 0.000000 0.000000 -1.606072 -63.047625 -2.269871 -16.061659 0.661947 -25.551167 34.490143 -1.136865 -1.469083 -18.682608 -6.472374 18.354134 -14.719283 -2.440879 5.056552 0.000000 0.000000 0.000000 -8.992251 -69.977207 -9.235888 8.341783 -11.669668 10.671816 -5.471711 -10.956782 4.861990 1.256999 -1.379615 0.513776 0.000000 0.000000 0.000000 -10.788952 -11.404736 4.930089 5.765253 31.049138 5.587815 9.588668 19.634847 -1.198987 0.000000 0.000000 0.000000 -12.475194 -11.399003 4.768126 7.138191 -19.980614 35.178753 6.081318 0.993448 -7.119875 -13.144680 -33.814026 11.143711 3.336680 -21.323535 2.705157 0.000000 0.000000 0.000000 -14.859853 -12.111268 4.679343 0.353811 -19.845183 2.716050 4.014766 -2.420321 -0.004149 -63.926841 9.054030 -14.445326 -5.291258 46.462652 13.539043 0.000000 0.000000 0.000000 
-1.570207 78.960815 5.238968 0.000000 0.000000 0.000000 -5.818732 -67.637724 -6.013326 6.431801 50.546098 22.145539 34.807443 4.827750 -2.907335 -26.764048 15.999440 -5.283545 -7.381528 3.949270 -10.617055 0.000000 0.000000 0.000000 -5.630634 -60.873624 -5.058829 -13.029026 2.242998 -24.964348 39.757554 -5.060725 0.078146 -16.032119 -10.441653 11.042902 -20.178436 -5.340792 9.635049 0.000000 0.000000 0.000000 -8.646301 -65.978022 -8.875337 7.208147 -11.246214 9.556172 -6.544517 -10.548268 4.145454 2.181021 -1.443497 0.017303 0.000000 0.000000 0.000000 -11.895340 -10.948144 4.155067 8.242120 26.553050 6.669979 10.091918 18.137943 -0.071334 0.000000 0.000000 0.000000 -13.945211 -11.088170 4.185926 6.473996 -17.519951 42.951419 4.735298 2.539449 -6.594535 -24.822897 -40.719163 7.575074 4.124296 -19.524048 4.484922 0.000000 0.000000 0.000000 -16.509399 -11.911643 4.038548 -1.800949 -20.279668 -1.959630 2.596153 -2.857632 0.144744 -67.349435 9.459526 -15.500609 -1.835997 44.802110 11.814696 0.000000 0.000000 0.000000 
-1.351224 79.101463 7.261452 0.000000 0.000000 0.000000 -7.615825 -62.063409 -7.307517 8.228201 49.004650 21.620836 31.150188 1.653803 -0.937368 -22.027241 14.025554 -12.096436 -11.230738 3.582672 -10.138589 0.000000 0.000000 0.000000 -7.739094 -57.680797 -6.469976 -11.992915 4.874334 -25.084763 45.135775 -7.131357 1.580564 -7.688153 -12.421076 8.589016 -27.869760 -8.545633 13.045123 0.000000 0.000000 0.000000 -7.896057 -60.765905 -7.771940 6.154207 -10.778909 8.110135 -7.643305 -9.812478 2.877305 2.644661 -2.328934 -0.157013 0.000000 0.000000 0.000000 -12.810251 -10.116523 2.875711 10.646073 22.012381 6.958000 11.239210 16.753534 0.081882 0.000000 0.000000 0.000000 -15.138836 -10.447095 3.161482 4.525145 -13.930971 48.815775 3.628442 4.529655 -4.930939 -38.928998 -43.971969 0.574892 3.994849 -21.080530 5.261206 0.000000 0.000000 0.000000 -17.915217 -11.269936 2.864215 -4.165312 -20.593399 -8.736459 0.799762 -2.868332 0.549699 -70.358216 7.798812 -16.427976 1.099552 43.250431 9.589169 0.000000 0.000000 0.000000 
-0.974917 78.517784 9.284252 0.000000 0.000000 0.000000 -7.406372 -56.107002 -7.492066 7.808712 48.330371 23.558038 28.894576 -0.710010 -0.166519 -19.658189 11.417996 -16.217883 -13.575377 2.707408 -9.283974 0.000000 0.000000 0.000000 -7.644762 -52.746296 -6.671170 -12.737829 6.982687 -25.119590 50.016420 -6.573885 2.993024 2.971236 -10.887991 10.630638 -34.521490 -10.746530 14.242546 0.000000 0.000000 0.000000 -6.979871 -54.159340 -6.474085 5.159336 -10.225994 6.433112 -8.579539 -8.711958 1.170763 2.197231 -3.390002 -0.195058 0.000000 0.000000 0.000000 -13.614834 -8.892438 1.118125 12.491290 17.450565 6.483149 13.105306 15.206149 -0.510656 0.000000 0.000000 0.000000 -15.857766 -9.435796 1.643957 1.764973 -10.103740 52.129650 2.902355 6.056181 -2.784848 -50.617231 -43.789545 -6.834589 2.612280 -26.461126 4.684254 0.000000 0.000000 0.000000 -18.931913 -10.149277 1.159798 -6.818438 -20.426760 -17.568589 -1.036988 -2.468488 1.140218 -73.469770 4.760840 -16.813177 2.513234 41.852503 7.357180 0.000000 0.000000 0.000000 
-0.588170 77.661316 11.349003 0.000000 0.000000 0.000000 -5.832485 -50.171810 -7.210204 4.065849 47.826241 28.437435 29.119900 -2.966866 -0.103199 -19.696959 8.476802 -18.463186 -13.525042 1.346904 -7.999144 0.000000 0.000000 0.000000 -6.067508 -45.562823 -6.528068 -15.255864 6.369267 -24.723249 55.078444 -3.467043 4.419532 11.335478 -5.639581 14.185130 -36.356479 -10.646931 13.512253 0.000000 0.000000 0.000000 -5.443834 -46.087965 -5.244673 4.286257 -9.502676 4.724377 -9.117358 -7.245402 -0.696258 0.903356 -4.665490 0.256857 0.000000 0.000000 0.000000 -14.149773 -7.370754 -0.868683 13.057767 12.787550 5.285343 15.351383 13.048186 -1.377326 0.000000 0.000000 0.000000 -16.008553 -8.016253 -0.218210 -1.139919 -6.565005 52.721790 3.237610 6.022205 -0.589904 -57.449220 -41.448614 -12.907377 0.164919 -35.369465 2.666398 0.000000 0.000000 0.000000 -19.286965 -8.552999 -0.801741 -9.645922 -19.362582 -28.090022 -2.445187 -1.597435 2.814977 -76.958890 1.893784 -16.518077 1.654021 42.041006 5.724197 0.000000 0.000000 0.000000 
-0.389802 76.867393 13.220459 0.000000 0.000000 0.000000 -3.418949 -43.686023 -6.898143 -3.166899 45.699375 35.701262 32.400553 -5.923452 -0.152957 -20.859567 4.922109 -20.066134 -12.615767 -0.380179 -5.641406 0.000000 0.000000 0.000000 -3.756918 -36.404574 -6.707125 -20.007303 2.123775 -23.884634 60.607171 1.097733 5.997258 14.676118 1.208401 17.371210 -31.564169 -8.112671 11.273296 0.000000 0.000000 0.000000 -3.372988 -36.483626 -4.578459 3.767964 -8.596916 3.189771 -9.100846 -5.508679 -2.346987 -0.227092 -5.773116 1.002116 0.000000 0.000000 0.000000 -14.266826 -5.732834 -2.696487 12.114163 7.972576 3.397364 17.705621 10.129650 -2.111491 0.000000 0.000000 0.000000 -15.541909 -6.402317 -2.056603 -3.573195 -3.597670 50.793262 4.441987 4.946090 0.389803 -59.694433 -38.346113 -17.295772 -3.146112 -46.552910 -0.756171 0.000000 0.000000 0.000000 -18.829314 -6.712646 -2.637622 -12.169442 -17.094570 -38.934069 -3.268597 -0.863268 5.350784 -80.807777 0.019381 -15.011759 -1.488565 44.668833 5.003042 0.000000 0.000000 0.000000 
